<svg xmlns="http://www.w3.org/2000/svg" viewBox="0 0 640 480"><rect width="640" height="480" fill="#ffe0e1"/><circle cx="320" cy="222" r="108" fill="#d8946f"/><path d="M201 245c-19-121 23-188 119-188 102 0 139 78 119 188l-42-27V126c-51 35-112 42-169 14v78z" fill="#7b3e58"/><circle cx="274" cy="225" r="8" fill="#392832"/><circle cx="366" cy="225" r="8" fill="#392832"/><path d="M294 273c15 12 37 12 52 0" fill="none" stroke="#9a4d61" stroke-width="9" stroke-linecap="round"/><path d="M176 480c15-105 77-150 144-150s129 45 144 150" fill="#e66f83"/><path d="M239 365c52 23 110 23 162 0" fill="none" stroke="#fff" stroke-width="14" opacity=".8"/></svg>