<svg xmlns="http://www.w3.org/2000/svg" viewBox="0 0 640 480"><rect width="640" height="480" fill="#e7e0f7"/><circle cx="320" cy="222" r="108" fill="#bd7958"/><path d="M203 217c-8-105 32-161 118-161 90 0 124 72 115 162l-31-35-17 29-27-31-30 31-30-32-32 32-26-28z" fill="#3b2b3e"/><circle cx="274" cy="225" r="8" fill="#30272f"/><circle cx="366" cy="225" r="8" fill="#30272f"/><path d="M293 273c16 13 38 13 54 0" fill="none" stroke="#7b3f3f" stroke-width="9" stroke-linecap="round"/><path d="M174 480c15-105 79-150 146-150s131 45 146 150" fill="#7a65b5"/><path d="M260 346l60 51 60-51" fill="none" stroke="#f6c453" stroke-width="15"/></svg>